<?xml version="1.0" encoding="utf-8"?>
<!-- Generator: Adobe Illustrator 16.0.0, SVG Export Plug-In . SVG Version: 6.00 Build 0)  -->
<!DOCTYPE svg PUBLIC "-//W3C//DTD SVG 1.1//EN" "http://www.w3.org/Graphics/SVG/1.1/DTD/svg11.dtd">
<svg version="1.1" id="Layer_1" xmlns="http://www.w3.org/2000/svg" xmlns:xlink="http://www.w3.org/1999/xlink" x="0px" y="0px"
	 width="841.891px" height="595.281px" viewBox="0 0 841.891 595.281" enable-background="new 0 0 841.891 595.281"
	 xml:space="preserve">
<g>
	<g>
		<path fill="#EC712D" d="M246.084,297.531c-0.02,8.73,3.354,16.943,9.496,23.095l265.154,265.145
			c6.127,6.131,14.306,9.51,23.026,9.51c8.722,0,16.896-3.379,23.027-9.51l19.509-19.5c6.127-6.137,9.51-14.311,9.51-23.037
			c0-8.715-3.383-16.889-9.51-23.021L363.6,297.517L586.05,75.067c12.694-12.689,12.694-33.345,0-46.054L566.541,9.51
			C560.414,3.378,552.235,0,543.514,0c-8.722,0-16.9,3.378-23.027,9.51L255.58,274.412
			C249.438,280.559,246.065,288.767,246.084,297.531z"/>
	</g>
</g>
</svg>
