<?xml version="1.0" encoding="utf-8"?>
<!-- Generator: Adobe Illustrator 16.0.0, SVG Export Plug-In . SVG Version: 6.00 Build 0)  -->
<!DOCTYPE svg PUBLIC "-//W3C//DTD SVG 1.1//EN" "http://www.w3.org/Graphics/SVG/1.1/DTD/svg11.dtd">
<svg version="1.1" id="Layer_1" xmlns="http://www.w3.org/2000/svg" xmlns:xlink="http://www.w3.org/1999/xlink" x="0px" y="0px"
	 width="841.891px" height="595.281px" viewBox="0 0 841.891 595.281" enable-background="new 0 0 841.891 595.281"
	 xml:space="preserve">
<g>
	<g>
		<path fill="#EC712D" d="M586.31,274.412L321.403,9.51C315.276,3.378,307.097,0,298.376,0c-8.721,0-16.899,3.378-23.026,9.51
			l-19.509,19.504c-12.694,12.709-12.694,33.364,0,46.054L478.29,297.517L255.594,520.212c-6.127,6.133-9.51,14.307-9.51,23.021
			c0,8.727,3.383,16.9,9.51,23.037l19.509,19.5c6.132,6.131,14.306,9.51,23.027,9.51c8.721,0,16.899-3.379,23.026-9.51
			L586.31,320.626c6.142-6.152,9.516-14.365,9.496-23.095C595.825,288.767,592.452,280.559,586.31,274.412z"/>
	</g>
</g>
</svg>
